<?xml version="1.0" encoding="utf-8"?>
<!-- Generator: Adobe Illustrator 25.4.1, SVG Export Plug-In . SVG Version: 6.00 Build 0)  -->
<svg version="1.1" id="logo-8" xmlns="http://www.w3.org/2000/svg" xmlns:xlink="http://www.w3.org/1999/xlink" x="0px" y="0px"
	 viewBox="0 0 140 30" style="enable-background:new 0 0 140 30;" xml:space="preserve">
<style type="text/css">
	.st0{fill:#FF9100;}
	.st1{fill:#167CC1;}
	.st2{fill:#3698BA;}
	.st3{fill:#FFA143;}
</style>
<path class="st0" d="M22.4,14.5c-0.4,0.4-0.7,0.8-0.9,1.3c-0.2,0.5-0.2,1-0.2,1.6l0,0c0.1,0.6,0,1.3-0.2,1.9c-0.2,0.6-0.6,1.1-1,1.6
	c-0.4,0.4-1,0.8-1.6,1c-0.6,0.2-1.2,0.3-1.9,0.2l0,0c-0.8-0.1-1.5,0.1-2.2,0.5c-0.7,0.4-1.2,0.9-1.5,1.6c-0.3,0.7-0.4,1.5-0.3,2.2
	c0.1,0.7,0.5,1.4,1,2c0.5,0.5,1.2,0.9,2,1c0.7,0.1,1.5,0,2.2-0.3c0.7-0.3,1.3-0.8,1.6-1.5s0.5-1.4,0.5-2.2l0,0
	c-0.1-0.6,0-1.3,0.2-1.9c0.2-0.6,0.6-1.1,1-1.6c0.4-0.4,1-0.8,1.6-1c0.6-0.2,1.2-0.3,1.9-0.2l0,0c0.6,0.1,1.2,0,1.8-0.3
	c0.6-0.2,1.1-0.6,1.4-1.1c0.4-0.5,0.6-1.1,0.7-1.7c0.1-0.6,0-1.2-0.2-1.8c-0.2-0.6-0.6-1.1-1-1.5s-1-0.7-1.6-0.8
	c-0.6-0.1-1.2-0.1-1.8,0.1C23.4,13.7,22.9,14,22.4,14.5L22.4,14.5z"/>
<path class="st1" d="M15,18.6L15,18.6c0.5,0,1.1,0,1.6-0.2c0.5-0.2,1-0.5,1.3-0.9c0.4-0.4,0.7-0.8,0.9-1.3c0.2-0.5,0.2-1,0.2-1.6
	l0,0c-0.1-0.6,0-1.3,0.2-1.9c0.2-0.6,0.6-1.1,1-1.6c0.4-0.4,1-0.8,1.6-1c0.6-0.2,1.2-0.3,1.9-0.2l0,0c0.8,0.1,1.5-0.1,2.2-0.5
	c0.7-0.4,1.2-0.9,1.5-1.6c0.3-0.7,0.4-1.5,0.3-2.2c-0.1-0.7-0.5-1.4-1-2c-0.5-0.5-1.2-0.9-2-1c-0.7-0.1-1.5,0-2.2,0.3
	c-0.7,0.3-1.3,0.8-1.6,1.5c-0.4,0.7-0.5,1.4-0.5,2.2l0,0c0.1,0.6,0,1.3-0.2,1.9c-0.2,0.6-0.6,1.1-1,1.6c-0.4,0.4-1,0.8-1.6,1
	c-0.6,0.2-1.2,0.3-1.9,0.2l0,0c-0.5-0.1-1.1,0-1.6,0.2c-0.5,0.2-1,0.5-1.3,0.9c-0.4,0.4-0.7,0.8-0.9,1.3c-0.2,0.5-0.2,1-0.2,1.6l0,0
	c0.1,0.6,0,1.3-0.2,1.9c-0.2,0.6-0.6,1.1-1,1.6c-0.4,0.4-1,0.8-1.6,1C8.3,19.9,7.6,20,7,20l0,0c-0.8-0.1-1.5,0.1-2.2,0.5
	c-0.7,0.4-1.2,0.9-1.5,1.6C3,22.8,2.9,23.5,3,24.3c0.1,0.7,0.5,1.4,1,2c0.5,0.5,1.2,0.9,2,1c0.7,0.1,1.5,0,2.2-0.3
	c0.7-0.3,1.3-0.8,1.6-1.5c0.4-0.7,0.5-1.4,0.5-2.2l0,0c-0.1-0.6,0-1.3,0.2-1.9c0.2-0.6,0.6-1.1,1-1.6c0.4-0.4,1-0.8,1.6-1
	C13.8,18.7,14.4,18.6,15,18.6L15,18.6z"/>
<path class="st0" d="M8.3,16.6c0.4-0.4,0.7-0.8,0.8-1.3c0.2-0.5,0.2-1,0.2-1.6l0,0c-0.1-0.6,0-1.3,0.2-1.9c0.2-0.6,0.6-1.1,1-1.6
	c0.4-0.4,1-0.8,1.6-1C12.8,9.1,13.5,9,14.1,9l0,0c0.8,0.1,1.5-0.1,2.2-0.5c0.7-0.4,1.2-0.9,1.5-1.6c0.3-0.7,0.4-1.5,0.3-2.2
	c-0.1-0.7-0.5-1.4-1-2s-1.2-0.9-2-1c-0.7-0.1-1.5,0-2.2,0.3c-0.7,0.3-1.3,0.8-1.6,1.5c-0.4,0.7-0.5,1.4-0.5,2.2l0,0
	c0.1,0.6,0,1.3-0.2,1.9c-0.2,0.6-0.6,1.1-1,1.6c-0.4,0.4-1,0.8-1.6,1c-0.6,0.2-1.2,0.3-1.9,0.2l0,0c-0.6-0.1-1.2,0-1.8,0.3
	s-1.1,0.6-1.4,1.1c-0.4,0.5-0.6,1.1-0.7,1.7c-0.1,0.6,0,1.2,0.2,1.8c0.2,0.6,0.6,1.1,1,1.5c0.5,0.4,1,0.7,1.6,0.8
	c0.6,0.1,1.2,0.1,1.8-0.1C7.4,17.4,7.9,17.1,8.3,16.6L8.3,16.6z"/>
<path class="st2" d="M39.3,6.7h3v14.5h-3V6.7z"/>
<path class="st2" d="M44,16.2c0-1,0.3-2.1,0.9-2.9c0.6-0.9,1.4-1.5,2.4-1.9c1-0.4,2-0.5,3-0.3s2,0.7,2.7,1.4
	c0.7,0.7,1.2,1.7,1.4,2.7s0.1,2.1-0.3,3c-0.4,1-1.1,1.8-1.9,2.4c-0.9,0.6-1.9,0.9-2.9,0.9c-0.7,0-1.4-0.1-2-0.4
	c-0.6-0.3-1.2-0.6-1.7-1.1c-0.5-0.5-0.9-1.1-1.1-1.7C44.1,17.5,44,16.8,44,16.2z M51.5,16.2c0-0.4-0.2-0.9-0.4-1.2
	c-0.3-0.4-0.6-0.6-1-0.8c-0.4-0.2-0.9-0.2-1.3-0.1c-0.4,0.1-0.8,0.3-1.1,0.6c-0.3,0.3-0.5,0.7-0.6,1.2c-0.1,0.4,0,0.9,0.1,1.3
	c0.2,0.4,0.5,0.8,0.8,1c0.4,0.2,0.8,0.4,1.3,0.4c0.3,0,0.6,0,0.9-0.2c0.3-0.1,0.5-0.3,0.8-0.5c0.2-0.2,0.4-0.5,0.5-0.8
	C51.5,16.8,51.5,16.5,51.5,16.2z"/>
<path class="st2" d="M66.3,11.2v9.4c0,3.3-2.6,4.7-5.2,4.7c-0.9,0.1-1.9-0.1-2.7-0.5c-0.8-0.4-1.5-1.1-2-1.9l2.5-1.5
	c0.2,0.4,0.5,0.8,0.9,1c0.4,0.2,0.9,0.3,1.3,0.3c0.3,0,0.6,0,0.9-0.1c0.3-0.1,0.5-0.2,0.8-0.4c0.2-0.2,0.4-0.5,0.5-0.7
	c0.1-0.3,0.1-0.6,0.1-0.9v-0.9c-0.3,0.4-0.8,0.8-1.3,1c-0.5,0.2-1,0.3-1.6,0.3c-1.3,0-2.5-0.6-3.5-1.5c-0.9-0.9-1.4-2.2-1.4-3.5
	s0.5-2.6,1.4-3.5c0.9-0.9,2.1-1.5,3.5-1.5c0.5,0,1.1,0.1,1.6,0.3c0.5,0.2,0.9,0.6,1.3,1v-1L66.3,11.2z M63.4,16c0-0.5-0.1-1-0.4-1.4
	c-0.3-0.4-0.6-0.7-1.1-0.9c-0.4-0.2-0.9-0.3-1.4-0.2c-0.5,0.1-0.9,0.3-1.3,0.6c-0.3,0.3-0.6,0.8-0.7,1.2c-0.1,0.5-0.1,1,0.1,1.4
	c0.2,0.4,0.5,0.8,0.9,1.1c0.4,0.3,0.9,0.4,1.3,0.4c0.3,0,0.6,0,0.9-0.1c0.3-0.1,0.6-0.3,0.8-0.5c0.2-0.2,0.4-0.5,0.5-0.8
	C63.4,16.6,63.4,16.3,63.4,16z"/>
<path class="st2" d="M68,16.2c0-1,0.3-2.1,0.9-2.9c0.6-0.9,1.4-1.5,2.4-1.9c1-0.4,2-0.5,3-0.3s2,0.7,2.7,1.4
	c0.7,0.7,1.2,1.7,1.4,2.7c0.2,1,0.1,2.1-0.3,3c-0.4,1-1.1,1.8-1.9,2.4c-0.9,0.6-1.9,0.9-2.9,0.9c-0.7,0-1.4-0.1-2-0.4
	c-0.6-0.3-1.2-0.6-1.7-1.1c-0.5-0.5-0.9-1.1-1.1-1.7C68.1,17.5,68,16.8,68,16.2z M75.5,16.2c0-0.4-0.2-0.9-0.4-1.2
	c-0.3-0.4-0.6-0.6-1-0.8c-0.4-0.2-0.9-0.2-1.3-0.1c-0.4,0.1-0.8,0.3-1.2,0.6c-0.3,0.3-0.5,0.7-0.6,1.2c-0.1,0.4,0,0.9,0.1,1.3
	s0.5,0.8,0.8,1c0.4,0.2,0.8,0.4,1.3,0.4c0.3,0,0.6,0,0.9-0.2c0.3-0.1,0.5-0.3,0.8-0.5c0.2-0.2,0.4-0.5,0.5-0.8
	C75.5,16.8,75.5,16.5,75.5,16.2z"/>
<path class="st3" d="M79.9,8.6c0-0.4,0.1-0.7,0.3-1C80.4,7.3,80.6,7,81,6.9c0.3-0.1,0.7-0.2,1-0.1c0.3,0.1,0.7,0.2,0.9,0.5
	c0.2,0.2,0.4,0.6,0.5,0.9c0.1,0.3,0,0.7-0.1,1c-0.1,0.3-0.4,0.6-0.7,0.8c-0.3,0.2-0.6,0.3-1,0.3c-0.5,0-0.9-0.2-1.3-0.5
	C80.1,9.5,79.9,9,79.9,8.6z M80.2,11.2h3v9.9h-3L80.2,11.2z"/>
<path class="st3" d="M96,16.2c0,0.7-0.1,1.3-0.3,1.9c-0.2,0.6-0.6,1.2-1,1.7c-0.4,0.5-1,0.9-1.6,1.2c-0.6,0.3-1.2,0.4-1.9,0.5
	c-0.6,0-1.1-0.1-1.6-0.3c-0.5-0.2-1-0.5-1.3-0.9v4.9h-3V11.2h3v0.9c0.4-0.4,0.8-0.7,1.3-0.9c0.5-0.2,1.1-0.3,1.6-0.3
	c0.7,0,1.3,0.2,1.9,0.5c0.6,0.3,1.1,0.7,1.6,1.2c0.4,0.5,0.8,1.1,1,1.7C95.9,14.8,96,15.5,96,16.2z M93,16.2c0-0.5-0.2-0.9-0.4-1.3
	c-0.3-0.4-0.6-0.7-1.1-0.8c-0.4-0.2-0.9-0.2-1.4-0.1c-0.5,0.1-0.9,0.3-1.2,0.7c-0.3,0.3-0.5,0.8-0.6,1.2c-0.1,0.5,0,0.9,0.1,1.4
	c0.2,0.4,0.5,0.8,0.9,1c0.4,0.3,0.8,0.4,1.3,0.4c0.3,0,0.6,0,0.9-0.2c0.3-0.1,0.6-0.3,0.8-0.5c0.2-0.2,0.4-0.5,0.5-0.8
	C93,16.8,93,16.5,93,16.2z"/>
<path class="st3" d="M105.1,18.1c0,2.3-2,3.2-4.1,3.2c-0.9,0.1-1.7-0.1-2.5-0.5c-0.8-0.4-1.4-1.1-1.8-1.8l2.6-1.5
	c0.1,0.4,0.3,0.7,0.6,0.9c0.3,0.2,0.7,0.3,1,0.3c0.7,0,1.1-0.2,1.1-0.6c0-1.1-4.9-0.5-4.9-3.9c0-2.2,1.8-3.2,3.9-3.2
	c0.8,0,1.5,0.2,2.2,0.5c0.7,0.4,1.2,0.9,1.6,1.6l-2.5,1.4c-0.1-0.3-0.3-0.5-0.5-0.6s-0.5-0.2-0.8-0.2c-0.5,0-0.8,0.2-0.8,0.6
	C100.3,15.2,105.1,14.5,105.1,18.1z"/>
<path class="st3" d="M116,11.2v9.9h-3v-0.9c-0.3,0.4-0.8,0.7-1.3,0.9c-0.5,0.2-1,0.3-1.6,0.3c-2,0-3.7-1.4-3.7-4.1v-6.1h3v5.6
	c0,0.2,0,0.5,0.1,0.7c0.1,0.2,0.2,0.4,0.4,0.6c0.2,0.2,0.4,0.3,0.6,0.4c0.2,0.1,0.5,0.1,0.7,0.1c1.1,0,1.8-0.6,1.8-2v-5.4L116,11.2z
	"/>
<path class="st3" d="M133,15v6.1h-3v-5.8c0-1-0.5-1.6-1.4-1.6c-1,0-1.5,0.7-1.5,1.9v5.6h-3v-5.8c0-1-0.5-1.6-1.4-1.6
	c-1,0-1.5,0.7-1.5,1.9v5.6h-3v-9.9h3v0.9c0.3-0.4,0.7-0.7,1.2-0.9c0.5-0.2,1-0.3,1.5-0.3c0.5,0,1,0.1,1.5,0.3c0.5,0.2,0.8,0.6,1.1,1
	c0.3-0.4,0.8-0.8,1.3-1c0.5-0.2,1.1-0.3,1.6-0.3C131.5,10.9,133,12.6,133,15z"/>
</svg>
